<?xml version="1.0" encoding="UTF-8"?>
<!DOCTYPE svg PUBLIC "-//W3C//DTD SVG 1.1//EN" "http://www.w3.org/Graphics/SVG/1.1/DTD/svg11.dtd">
<svg xmlns="http://www.w3.org/2000/svg" version="1.1" width="600px" height="600px" style="shape-rendering:geometricPrecision; text-rendering:geometricPrecision; image-rendering:optimizeQuality; fill-rule:evenodd; clip-rule:evenodd" xmlns:xlink="http://www.w3.org/1999/xlink">
  <g><path style="opacity:1" fill="#00d3f3" d="M 43.5,57.5 C 131.666,56.3343 219.999,56.1676 308.5,57C 307.956,57.7172 307.289,58.2172 306.5,58.5C 219.335,57.5006 132.002,57.1673 44.5,57.5C 44.1667,57.5 43.8333,57.5 43.5,57.5 Z"/></g>
  <g><path style="opacity:1" fill="#00d3f3" d="M 495.5,75.5 C 500.236,69.2575 505.569,63.4242 511.5,58C 474.5,57.3333 437.5,57.3333 400.5,58C 385.581,73.4214 370.248,88.2547 354.5,102.5C 369.298,87.2015 384.298,72.0348 399.5,57C 437.833,56.3333 476.167,56.3333 514.5,57C 508.298,63.3694 501.965,69.5361 495.5,75.5 Z"/></g>
  <g><path style="opacity:1" fill="#00d3f3" d="M 44.5,57.5 C 132.002,57.1673 219.335,57.5006 306.5,58.5C 277.926,87.5732 249.26,116.407 220.5,145C 190.835,145.5 161.169,145.667 131.5,145.5C 131.5,247.833 131.5,350.167 131.5,452.5C 228.332,453.499 325.332,453.833 422.5,453.5C 422.5,482.5 422.5,511.5 422.5,540.5C 419.167,540.5 415.833,540.5 412.5,540.5C 289.833,540.5 167.167,540.5 44.5,540.5C 44.5,379.5 44.5,218.5 44.5,57.5 Z"/></g>
  <g><path style="opacity:1" fill="#00d3f3" d="M 495.5,75.5 C 479.5,90.8333 463.833,106.5 448.5,122.5C 447.784,122.217 446.951,121.884 446,121.5C 445.641,124.544 444.974,124.878 444,122.5C 442.716,123.572 442.383,124.905 443,126.5C 427.221,142.279 410.721,158.779 393.5,176C 393.728,176.399 394.062,176.565 394.5,176.5C 371.167,199.167 348.167,222.167 325.5,245.5C 309.728,230.229 294.062,214.729 278.5,199C 277.906,198.536 277.239,198.369 276.5,198.5C 274.949,195.437 272.782,192.771 270,190.5C 269.333,189.833 269.333,189.167 270,188.5C 281.756,177.247 292.923,165.58 303.5,153.5C 308.821,149.845 313.487,145.512 317.5,140.5C 329.861,127.807 342.194,115.14 354.5,102.5C 370.248,88.2547 385.581,73.4214 400.5,58C 437.5,57.3333 474.5,57.3333 511.5,58C 505.569,63.4242 500.236,69.2575 495.5,75.5 Z"/></g>
  <g><path style="opacity:1" fill="#00d3f3" d="M 448.5,122.5 C 430.833,140.833 412.833,158.833 394.5,176.5C 394.062,176.565 393.728,176.399 393.5,176C 410.721,158.779 427.221,142.279 443,126.5C 442.383,124.905 442.716,123.572 444,122.5C 444.974,124.878 445.641,124.544 446,121.5C 446.951,121.884 447.784,122.217 448.5,122.5 Z"/></g>
  <g><path style="opacity:1" fill="#00d3f3" d="M 481.5,302.5 C 481.5,301.833 481.167,301.5 480.5,301.5C 464.752,315.745 449.419,330.579 434.5,346C 433.552,346.483 432.552,346.649 431.5,346.5C 431.688,348.103 431.188,349.437 430,350.5C 428.871,348.859 427.371,347.859 425.5,347.5C 409.833,332.5 394.5,317.167 379.5,301.5C 379.369,300.761 379.536,300.094 380,299.5C 391.369,288.298 402.535,276.965 413.5,265.5C 425.785,252.548 438.452,239.881 451.5,227.5C 461.173,218.827 470.173,209.494 478.5,199.5C 481.5,195.833 484.833,192.5 488.5,189.5C 492.5,187.5 495.5,184.5 497.5,180.5C 501.167,176.167 505.167,172.167 509.5,168.5C 524.414,155.088 538.914,141.088 553,126.5C 553.5,264.5 553.667,402.5 553.5,540.5C 529.833,540.5 506.167,540.5 482.5,540.5C 482.833,460.998 482.499,381.665 481.5,302.5 Z"/></g>
  <g><path style="opacity:1" fill="#00d3f3" d="M 317.5,140.5 C 313.487,145.512 308.821,149.845 303.5,153.5C 307.539,148.46 312.206,144.127 317.5,140.5 Z"/></g>
  <g><path style="opacity:1" fill="#00d3f3" d="M 303.5,153.5 C 292.923,165.58 281.756,177.247 270,188.5C 269.333,189.167 269.333,189.833 270,190.5C 272.782,192.771 274.949,195.437 276.5,198.5C 272.627,195.814 269.794,192.481 268,188.5C 279.702,176.631 291.535,164.965 303.5,153.5 Z"/></g>
  <g><path style="opacity:1" fill="#00d3f3" d="M 497.5,180.5 C 495.5,184.5 492.5,187.5 488.5,189.5C 491.167,186.167 494.167,183.167 497.5,180.5 Z"/></g>
  <g><path style="opacity:1" fill="#00d3f3" d="M 478.5,199.5 C 470.173,209.494 461.173,218.827 451.5,227.5C 459.8,217.533 468.8,208.199 478.5,199.5 Z"/></g>
  <g><path style="opacity:1" fill="#00d3f3" d="M 276.5,198.5 C 277.239,198.369 277.906,198.536 278.5,199C 294.062,214.729 309.728,230.229 325.5,245.5C 325.103,246.525 324.437,246.692 323.5,246C 307.632,230.299 291.965,214.465 276.5,198.5 Z"/></g>
  <g><path style="opacity:1" fill="#00d3f3" d="M 413.5,265.5 C 402.535,276.965 391.369,288.298 380,299.5C 379.536,300.094 379.369,300.761 379.5,301.5C 378.711,301.217 378.044,300.717 377.5,300C 389.086,287.91 401.086,276.41 413.5,265.5 Z"/></g>
  <g><path style="opacity:1" fill="#00d3f3" d="M 481.5,302.5 C 482.499,381.665 482.833,460.998 482.5,540.5C 506.167,540.5 529.833,540.5 553.5,540.5C 553.667,402.5 553.5,264.5 553,126.5C 538.914,141.088 524.414,155.088 509.5,168.5C 524.465,153.035 539.632,137.701 555,122.5C 555.5,262.166 555.667,401.833 555.5,541.5C 530.833,541.5 506.167,541.5 481.5,541.5C 481.5,461.833 481.5,382.167 481.5,302.5 Z"/></g>
  <g><path style="opacity:1" fill="#00d3f3" d="M 480.5,301.5 C 463.868,318.632 447.035,335.632 430,352.5C 428.293,350.963 426.793,349.296 425.5,347.5C 427.371,347.859 428.871,348.859 430,350.5C 431.188,349.437 431.688,348.103 431.5,346.5C 432.552,346.649 433.552,346.483 434.5,346C 449.419,330.579 464.752,315.745 480.5,301.5 Z"/></g>
  <g><path style="opacity:1" fill="#00d3f3" d="M 131.5,452.5 C 228.833,452.5 326.167,452.5 423.5,452.5C 423.5,482.167 423.5,511.833 423.5,541.5C 419.833,541.5 416.167,541.5 412.5,541.5C 412.5,541.167 412.5,540.833 412.5,540.5C 415.833,540.5 419.167,540.5 422.5,540.5C 422.5,511.5 422.5,482.5 422.5,453.5C 325.332,453.833 228.332,453.499 131.5,452.5 Z"/></g>
  <g><path style="opacity:1" fill="#00d3f3" d="M 43.5,57.5 C 43.8333,57.5 44.1667,57.5 44.5,57.5C 44.5,218.5 44.5,379.5 44.5,540.5C 167.167,540.5 289.833,540.5 412.5,540.5C 412.5,540.833 412.5,541.167 412.5,541.5C 289.5,541.5 166.5,541.5 43.5,541.5C 43.5,380.167 43.5,218.833 43.5,57.5 Z"/></g>
</svg>
