<?xml version="1.0" encoding="UTF-8"?>
<!DOCTYPE svg PUBLIC "-//W3C//DTD SVG 1.1//EN" "http://www.w3.org/Graphics/SVG/1.1/DTD/svg11.dtd">
<svg xmlns="http://www.w3.org/2000/svg" version="1.1" width="1024px" height="1024px" style="shape-rendering:geometricPrecision; text-rendering:geometricPrecision; image-rendering:optimizeQuality; fill-rule:evenodd; clip-rule:evenodd" xmlns:xlink="http://www.w3.org/1999/xlink">
<g><path style="opacity:1" fill="#f4f4f4" d="M -0.5,-0.5 C 340.833,-0.5 682.167,-0.5 1023.5,-0.5C 1023.5,340.833 1023.5,682.167 1023.5,1023.5C 682.167,1023.5 340.833,1023.5 -0.5,1023.5C -0.5,682.167 -0.5,340.833 -0.5,-0.5 Z"/></g>
<g><path style="opacity:1" fill="#5cd5dc" d="M 776.5,224.5 C 788.34,223.175 800.34,223.175 812.5,224.5C 812.376,225.107 812.043,225.44 811.5,225.5C 800.012,224.505 788.345,224.172 776.5,224.5 Z"/></g>
<g><path style="opacity:1" fill="#188b91" d="M 776.5,224.5 C 788.345,224.172 800.012,224.505 811.5,225.5C 810.833,225.833 810.167,226.167 809.5,226.5C 769.835,226.47 730.168,226.136 690.5,225.5C 719.171,225.457 747.838,225.124 776.5,224.5 Z"/></g>
<g><path style="opacity:1" fill="#0d9097" d="M 658.5,234.5 C 647.756,246.747 636.423,258.58 624.5,270C 623.906,270.464 623.239,270.631 622.5,270.5C 634.167,258.167 646.167,246.167 658.5,234.5 Z"/></g>
<g><path style="opacity:1" fill="#eef7f7" d="M 484.5,290.5 C 393.5,290.5 302.5,290.5 211.5,290.5C 225.484,289.167 239.817,288.501 254.5,288.5C 300.754,288.994 347.087,288.994 393.5,288.5C 424.833,288.833 456.167,289.167 487.5,289.5C 486.675,290.386 485.675,290.719 484.5,290.5 Z"/></g>
<g><path style="opacity:1" fill="#fbefed" d="M 211.5,290.5 C 302.5,290.5 393.5,290.5 484.5,290.5C 484.833,291.167 485.167,291.833 485.5,292.5C 393.833,292.5 302.167,292.5 210.5,292.5C 208.969,291.075 209.302,290.409 211.5,290.5 Z"/></g>
<g><path style="opacity:1" fill="#0d9099" d="M 607.5,285.5 C 587.253,307.249 566.42,328.582 545,349.5C 544.601,349.272 544.435,348.938 544.5,348.5C 565.167,327.167 586.167,306.167 607.5,285.5 Z"/></g>
<g><path style="opacity:1" fill="#259299" d="M 713.5,321.5 C 699.833,335.833 685.833,349.833 671.5,363.5C 683.954,349.533 697.287,335.699 711.5,322C 712.094,321.536 712.761,321.369 713.5,321.5 Z"/></g>
<g><path style="opacity:1" fill="#26929a" d="M 543.5,349.5 C 526.885,367.783 509.552,385.449 491.5,402.5C 508.115,384.217 525.448,366.551 543.5,349.5 Z"/></g>
<g><path style="opacity:1" fill="#16a7af" d="M 690.5,225.5 C 730.168,226.136 769.835,226.47 809.5,226.5C 777.527,258.139 745.527,289.806 713.5,321.5C 712.761,321.369 712.094,321.536 711.5,322C 697.287,335.699 683.954,349.533 671.5,363.5C 623.161,411.506 574.827,459.506 526.5,507.5C 502.502,484.836 478.836,461.836 455.5,438.5C 457.524,436.31 459.357,433.977 461,431.5C 471.14,422.694 480.64,413.194 489.5,403C 490.094,402.536 490.761,402.369 491.5,402.5C 509.552,385.449 526.885,367.783 543.5,349.5C 543.5,348.833 543.833,348.5 544.5,348.5C 544.435,348.938 544.601,349.272 545,349.5C 566.42,328.582 587.253,307.249 607.5,285.5C 612.167,280.167 617.167,275.167 622.5,270.5C 623.239,270.631 623.906,270.464 624.5,270C 636.423,258.58 647.756,246.747 658.5,234.5C 660.962,231.536 663.629,228.703 666.5,226C 674.493,225.5 682.493,225.334 690.5,225.5 Z"/></g>
<g><path style="opacity:1" fill="#128c92" d="M 211.5,294.5 C 279.834,294.333 348.167,294.5 416.5,295C 348.501,295.5 280.501,295.667 212.5,295.5C 212.168,465.57 212.501,635.57 213.5,805.5C 212.833,805.5 212.167,805.5 211.5,805.5C 211.5,635.167 211.5,464.833 211.5,294.5 Z"/></g>
<g><path style="opacity:1" fill="#249098" d="M 714.5,449.5 C 697.885,467.783 680.552,485.449 662.5,502.5C 679.115,484.217 696.448,466.551 714.5,449.5 Z"/></g>
<g><path style="opacity:1" fill="#f1fefe" d="M 210.5,292.5 C 302.167,292.5 393.833,292.5 485.5,292.5C 486.124,292.917 486.457,293.584 486.5,294.5C 486.253,295.713 485.586,296.38 484.5,296.5C 484.804,295.85 485.137,295.183 485.5,294.5C 394.001,293.168 302.668,293.168 211.5,294.5C 211.5,464.833 211.5,635.167 211.5,805.5C 246.996,806.498 282.663,806.832 318.5,806.5C 282.5,807.833 246.5,807.833 210.5,806.5C 210.5,635.167 210.5,463.833 210.5,292.5 Z"/></g>
<g><path style="opacity:1" fill="#1c9fa7" d="M 811.5,629.5 C 811.167,629.5 810.833,629.5 810.5,629.5C 809.869,538.362 809.369,447.362 809,356.5C 807.871,358.141 806.371,359.141 804.5,359.5C 805.833,357.833 807.167,356.167 808.5,354.5C 809.458,354.047 810.292,353.381 811,352.5C 811.5,444.833 811.667,537.166 811.5,629.5 Z"/></g>
<g><path style="opacity:1" fill="#fbf4f3" d="M 328.5,687.5 C 328.833,592.831 328.5,498.164 327.5,403.5C 326.914,403.709 326.414,404.043 326,404.5C 326.829,500.443 326.662,596.443 325.5,692.5C 325.167,692.5 324.833,692.5 324.5,692.5C 324.5,595.833 324.5,499.167 324.5,402.5C 341.513,402.167 358.513,402.501 375.5,403.5C 360.14,403.772 344.807,404.105 329.5,404.5C 330.616,415.182 330.616,425.682 329.5,436C 330.167,439.667 330.833,443.333 331.5,447C 330.737,485.953 330.071,524.787 329.5,563.5C 330.135,567.367 330.801,571.2 331.5,575C 330.813,608.943 330.146,642.943 329.5,677C 330.319,680.591 329.986,684.091 328.5,687.5 Z"/></g>
<g><path style="opacity:1" fill="#22929a" d="M 634.5,530.5 C 621.088,545.414 607.088,559.914 592.5,574C 606.369,587.701 620.035,601.535 633.5,615.5C 618.752,602.255 604.419,588.422 590.5,574C 605.035,559.298 619.701,544.798 634.5,530.5 Z"/></g>
<g><path style="opacity:1" fill="#fdf1f0" d="M 210.5,292.5 C 210.5,463.833 210.5,635.167 210.5,806.5C 209.167,721.169 208.5,635.503 208.5,549.5C 208.5,463.497 209.167,377.831 210.5,292.5 Z"/></g>
<g><path style="opacity:1" fill="#218e96" d="M 633.5,615.5 C 641.244,621.739 648.578,628.572 655.5,636C 657.877,635.173 660.211,634.006 662.5,632.5C 660.798,635.395 658.464,637.228 655.5,638C 647.964,630.632 640.631,623.132 633.5,615.5 Z"/></g>
<g><path style="opacity:1" fill="#f1f9f8" d="M 328.5,687.5 C 327.046,688.52 326.713,689.687 327.5,691C 336.833,691.167 346.167,691.333 355.5,691.5C 402.598,691.662 449.765,691.329 497,690.5C 547.264,691.164 597.431,691.831 647.5,692.5C 540.167,692.5 432.833,692.5 325.5,692.5C 326.662,596.443 326.829,500.443 326,404.5C 326.414,404.043 326.914,403.709 327.5,403.5C 328.5,498.164 328.833,592.831 328.5,687.5 Z"/></g>
<g><path style="opacity:1" fill="#16a8af" d="M 211.5,294.5 C 302.668,293.168 394.001,293.168 485.5,294.5C 485.137,295.183 484.804,295.85 484.5,296.5C 448.702,331.131 413.035,365.964 377.5,401C 359.503,401.5 341.503,401.667 323.5,401.5C 322.539,403.265 322.205,405.265 322.5,407.5C 321.883,407.389 321.383,407.056 321,406.5C 321.218,501.459 320.885,596.459 320,691.5C 318.605,692.815 317.605,692.481 317,690.5C 313.311,691.833 309.978,693.833 307,696.5C 305.239,694.32 303.073,692.654 300.5,691.5C 301.025,690.808 301.692,690.308 302.5,690C 301.223,688.214 299.556,687.048 297.5,686.5C 296.068,686.733 295.568,687.4 296,688.5C 297.135,688.727 298.302,689.06 299.5,689.5C 298.758,690.287 297.925,690.953 297,691.5C 296.282,690.549 295.449,690.383 294.5,691C 295.711,691.893 295.711,692.726 294.5,693.5C 292.994,694.23 291.66,694.563 290.5,694.5C 291.438,695.553 292.605,696.22 294,696.5C 296.98,694.753 300.147,694.253 303.5,695C 302.672,695.915 301.672,696.581 300.5,697C 304.073,696.165 306.573,697.665 308,701.5C 310.969,700.397 311.136,699.064 308.5,697.5C 309.325,696.614 310.325,696.281 311.5,696.5C 311.34,698.199 311.506,699.866 312,701.5C 312.919,699.633 313.419,697.633 313.5,695.5C 314.672,695.919 315.672,696.585 316.5,697.5C 315.674,698.451 315.508,699.451 316,700.5C 319.891,699.536 320.058,697.703 316.5,695C 319.054,694.442 321.054,695.275 322.5,697.5C 319.769,698.156 319.936,699.489 323,701.5C 325.946,698.457 327.112,699.124 326.5,703.5C 324.345,703.372 322.345,703.872 320.5,705C 323.754,705.25 326.754,706.25 329.5,708C 327.699,708.317 327.366,708.984 328.5,710C 329.784,710.684 330.951,710.517 332,709.5C 333.781,712.452 336.281,714.452 339.5,715.5C 341.064,714.231 342.731,713.064 344.5,712C 343.062,711.781 341.729,711.281 340.5,710.5C 341,710.167 341.5,709.833 342,709.5C 343.44,710.148 344.94,710.481 346.5,710.5C 346.33,709.178 346.663,708.011 347.5,707C 349.727,706.879 351.56,706.046 353,704.5C 354.84,705.833 355.34,705.666 354.5,704C 351.023,705.327 348.19,704.493 346,701.5C 345.691,702.766 345.191,703.933 344.5,705C 343.065,704.689 341.732,704.855 340.5,705.5C 339.707,704.645 340.04,703.811 341.5,703C 337.5,702.667 333.5,702.333 329.5,702C 330.905,700.731 332.571,700.231 334.5,700.5C 334.649,699.448 334.483,698.448 334,697.5C 330.238,699.02 326.738,698.52 323.5,696C 430.583,695.547 537.583,695.381 644.5,695.5C 644.83,731.74 644.496,767.906 643.5,804C 644.448,804.483 645.448,804.649 646.5,804.5C 502.334,805.5 358.001,805.833 213.5,805.5C 212.501,635.57 212.168,465.57 212.5,295.5C 280.501,295.667 348.501,295.5 416.5,295C 348.167,294.5 279.834,294.333 211.5,294.5 Z"/></g>
<g><path style="opacity:1" fill="#16a8af" d="M 810.5,629.5 C 810.5,687.833 810.5,746.167 810.5,804.5C 778.167,804.5 745.833,804.5 713.5,804.5C 713.667,760.165 713.5,715.832 713,671.5C 712.5,686.83 712.333,702.163 712.5,717.5C 711.501,674.67 711.168,631.67 711.5,588.5C 711.103,587.475 710.437,587.308 709.5,588C 693.938,603.066 678.271,617.899 662.5,632.5C 660.211,634.006 657.877,635.173 655.5,636C 648.578,628.572 641.244,621.739 633.5,615.5C 620.035,601.535 606.369,587.701 592.5,574C 607.088,559.914 621.088,545.414 634.5,530.5C 643.581,520.752 652.914,511.419 662.5,502.5C 680.552,485.449 697.885,467.783 714.5,449.5C 744.167,419.167 774.167,389.167 804.5,359.5C 806.371,359.141 807.871,358.141 809,356.5C 809.369,447.362 809.869,538.362 810.5,629.5 Z"/></g>
<g><path style="opacity:1" fill="#f2fefe" d="M 812.5,353.5 C 812.5,503.5 812.5,653.5 812.5,803.5C 812.5,804.833 812.5,806.167 812.5,807.5C 778.996,807.832 745.662,807.498 712.5,806.5C 745.5,806.5 778.5,806.5 811.5,806.5C 811.5,747.5 811.5,688.5 811.5,629.5C 811.667,537.166 811.5,444.833 811,352.5C 810.292,353.381 809.458,354.047 808.5,354.5C 808.5,353.5 808.5,352.5 808.5,351.5C 810.483,351.157 811.817,351.824 812.5,353.5 Z"/></g>
<g><path style="opacity:1" fill="#41949a" d="M 323.5,401.5 C 323.167,498.668 323.501,595.668 324.5,692.5C 324.833,692.5 325.167,692.5 325.5,692.5C 432.833,692.5 540.167,692.5 647.5,692.5C 647.5,692.833 647.5,693.167 647.5,693.5C 539.833,693.5 432.167,693.5 324.5,693.5C 322.502,598.506 321.836,503.173 322.5,407.5C 322.205,405.265 322.539,403.265 323.5,401.5 Z"/></g>
<g><path style="opacity:1" fill="#11acb4" d="M 322.5,407.5 C 321.836,503.173 322.502,598.506 324.5,693.5C 431.665,694.499 538.999,694.833 646.5,694.5C 646.5,731.167 646.5,767.833 646.5,804.5C 645.448,804.649 644.448,804.483 643.5,804C 644.496,767.906 644.83,731.74 644.5,695.5C 537.583,695.381 430.583,695.547 323.5,696C 326.738,698.52 330.238,699.02 334,697.5C 334.483,698.448 334.649,699.448 334.5,700.5C 332.571,700.231 330.905,700.731 329.5,702C 333.5,702.333 337.5,702.667 341.5,703C 340.04,703.811 339.707,704.645 340.5,705.5C 341.732,704.855 343.065,704.689 344.5,705C 345.191,703.933 345.691,702.766 346,701.5C 348.19,704.493 351.023,705.327 354.5,704C 355.34,705.666 354.84,705.833 353,704.5C 351.56,706.046 349.727,706.879 347.5,707C 346.663,708.011 346.33,709.178 346.5,710.5C 344.94,710.481 343.44,710.148 342,709.5C 341.5,709.833 341,710.167 340.5,710.5C 341.729,711.281 343.062,711.781 344.5,712C 342.731,713.064 341.064,714.231 339.5,715.5C 336.281,714.452 333.781,712.452 332,709.5C 330.951,710.517 329.784,710.684 328.5,710C 327.366,708.984 327.699,708.317 329.5,708C 326.754,706.25 323.754,705.25 320.5,705C 322.345,703.872 324.345,703.372 326.5,703.5C 327.112,699.124 325.946,698.457 323,701.5C 319.936,699.489 319.769,698.156 322.5,697.5C 321.054,695.275 319.054,694.442 316.5,695C 320.058,697.703 319.891,699.536 316,700.5C 315.508,699.451 315.674,698.451 316.5,697.5C 315.672,696.585 314.672,695.919 313.5,695.5C 313.419,697.633 312.919,699.633 312,701.5C 311.506,699.866 311.34,698.199 311.5,696.5C 310.325,696.281 309.325,696.614 308.5,697.5C 311.136,699.064 310.969,700.397 308,701.5C 306.573,697.665 304.073,696.165 300.5,697C 301.672,696.581 302.672,695.915 303.5,695C 300.147,694.253 296.98,694.753 294,696.5C 292.605,696.22 291.438,695.553 290.5,694.5C 291.66,694.563 292.994,694.23 294.5,693.5C 295.711,692.726 295.711,691.893 294.5,691C 295.449,690.383 296.282,690.549 297,691.5C 297.925,690.953 298.758,690.287 299.5,689.5C 298.302,689.06 297.135,688.727 296,688.5C 295.568,687.4 296.068,686.733 297.5,686.5C 299.556,687.048 301.223,688.214 302.5,690C 301.692,690.308 301.025,690.808 300.5,691.5C 303.073,692.654 305.239,694.32 307,696.5C 309.978,693.833 313.311,691.833 317,690.5C 317.605,692.481 318.605,692.815 320,691.5C 320.885,596.459 321.218,501.459 321,406.5C 321.383,407.056 321.883,407.389 322.5,407.5 Z"/></g>
<g><path style="opacity:1" fill="#faf0ef" d="M 710.5,646.5 C 710.5,696.833 710.5,747.167 710.5,797.5C 709.691,795.708 709.191,793.708 709,791.5C 708.333,743.5 708.333,695.5 709,647.5C 709.383,646.944 709.883,646.611 710.5,646.5 Z"/></g>
<g><path style="opacity:1" fill="#fdefee" d="M 812.5,353.5 C 813.833,428.33 814.5,503.497 814.5,579C 814.333,654.167 814.167,729.333 814,804.5C 813.617,803.944 813.117,803.611 812.5,803.5C 812.5,653.5 812.5,503.5 812.5,353.5 Z"/></g>
<g><path style="opacity:1" fill="#ebfcfc" d="M 711.5,588.5 C 711.168,631.67 711.501,674.67 712.5,717.5C 712.5,747.167 712.5,776.833 712.5,806.5C 711.883,806.389 711.383,806.056 711,805.5C 710.503,802.854 710.336,800.187 710.5,797.5C 710.5,747.167 710.5,696.833 710.5,646.5C 710.17,626.993 710.503,607.659 711.5,588.5 Z"/></g>
<g><path style="opacity:1" fill="#208f95" d="M 810.5,629.5 C 810.833,629.5 811.167,629.5 811.5,629.5C 811.5,688.5 811.5,747.5 811.5,806.5C 778.5,806.5 745.5,806.5 712.5,806.5C 712.5,776.833 712.5,747.167 712.5,717.5C 712.333,702.163 712.5,686.83 713,671.5C 713.5,715.832 713.667,760.165 713.5,804.5C 745.833,804.5 778.167,804.5 810.5,804.5C 810.5,746.167 810.5,687.833 810.5,629.5 Z"/></g>
<g><path style="opacity:1" fill="#1c898e" d="M 324.5,693.5 C 432.167,693.5 539.833,693.5 647.5,693.5C 647.5,731.167 647.5,768.833 647.5,806.5C 602.5,806.5 557.5,806.5 512.5,806.5C 511.833,806.5 511.167,806.5 510.5,806.5C 449.833,806.5 389.167,806.5 328.5,806.5C 325.167,806.5 321.833,806.5 318.5,806.5C 282.663,806.832 246.996,806.498 211.5,805.5C 212.167,805.5 212.833,805.5 213.5,805.5C 358.001,805.833 502.334,805.5 646.5,804.5C 646.5,767.833 646.5,731.167 646.5,694.5C 538.999,694.833 431.665,694.499 324.5,693.5 Z"/></g>
<g><path style="opacity:1" fill="#eefefd" d="M 647.5,692.5 C 648.499,730.663 648.832,768.996 648.5,807.5C 602.997,807.832 557.664,807.499 512.5,806.5C 557.5,806.5 602.5,806.5 647.5,806.5C 647.5,768.833 647.5,731.167 647.5,693.5C 647.5,693.167 647.5,692.833 647.5,692.5 Z"/></g>
<g><path style="opacity:1" fill="#f4fdfd" d="M 328.5,806.5 C 389.167,806.5 449.833,806.5 510.5,806.5C 498.205,808.03 485.705,808.697 473,808.5C 424.667,807.983 376.5,807.316 328.5,806.5 Z"/></g>
</svg>
