<svg width="376" height="376" viewBox="0 0 376 376" fill="none" xmlns="http://www.w3.org/2000/svg">
<path d="M80.68 159.92L20.38 49.51C20.1867 49.1634 20.29 48.99 20.69 48.99L70.98 48.96C71.1135 48.9604 71.2443 48.9968 71.3587 49.0655C71.4732 49.1341 71.5669 49.2324 71.63 49.35L130.89 161C130.945 161.105 130.973 161.223 130.97 161.342C130.967 161.461 130.934 161.577 130.873 161.679C130.813 161.781 130.728 161.865 130.625 161.923C130.523 161.981 130.408 162.011 130.29 162.01L84.19 162C83.473 162 82.769 161.807 82.1515 161.441C81.534 161.075 81.0258 160.55 80.68 159.92Z" fill="#0EA5E9"/>
<path d="M193.47 279.26L310.07 49.17C310.096 49.1184 310.136 49.0751 310.186 49.045C310.235 49.015 310.292 48.9994 310.35 49H355.66C355.712 49.0011 355.764 49.0155 355.809 49.0418C355.854 49.0681 355.892 49.1055 355.919 49.1505C355.946 49.1954 355.961 49.2465 355.963 49.2989C355.965 49.3512 355.954 49.4033 355.93 49.45L211.18 325.83C211.154 325.882 211.114 325.925 211.064 325.955C211.015 325.985 210.958 326.001 210.9 326H172.35C172.295 326 172.241 325.985 172.193 325.957C172.146 325.929 172.107 325.888 172.08 325.84L110.12 212.46C110.094 212.413 110.081 212.36 110.081 212.306C110.082 212.252 110.097 212.2 110.124 212.153C110.151 212.107 110.19 212.068 110.237 212.041C110.283 212.014 110.336 212 110.39 212H157.03C157.087 211.998 157.143 212.013 157.192 212.041C157.242 212.069 157.283 212.11 157.31 212.16L192.92 279.26C192.946 279.31 192.986 279.353 193.034 279.382C193.083 279.411 193.138 279.427 193.195 279.427C193.252 279.427 193.307 279.411 193.356 279.382C193.404 279.353 193.444 279.31 193.47 279.26Z" fill="#64748B"/>
</svg>
